<svg style="min-height: 100px;" viewBox="0 0 216 200" fill="none" xmlns="http://www.w3.org/2000/svg">
<rect width="216" height="200" rx="4" fill="var(--g-color-background-page)"/>
<rect x="2" y="2" width="20" height="196" fill="var(--module-background-normal)"/>
<rect x="2" y="2" width="20" height="20" fill="var(--g-color-primary-normal)"/>
<circle cx="12" cy="12" r="2" fill="white"/>
<rect x="2" y="22" width="20" height="20" fill="var(--module-background-active)"/>
<circle cx="12" cy="32" r="2" fill="var(--g-color-primary-normal)"/>
<rect x="2" y="42" width="20" height="20" fill="var(--module-background-normal)"/>
<circle cx="12" cy="52" r="2" fill="var(--module-foreground-normal)"/>
<rect x="2" y="62" width="20" height="20" fill="var(--module-background-normal)"/>
<circle cx="12" cy="72" r="2" fill="var(--module-foreground-normal)"/>
<rect x="2" y="178" width="20" height="20" fill="var(--module-background-normal)"/>
<circle cx="12" cy="188" r="2" fill="var(--module-foreground-normal)"/>
<circle cx="15" cy="185" r="1" fill="var(--g-color-secondary-normal)"/>
<rect x="194" y="2" width="20" height="196" fill="var(--g-color-background-normal)"/>
<rect x="194" y="2" width="20" height="20" fill="var(--g-color-background-accent)"/>
<circle cx="204" cy="12" r="2" fill="var(--g-color-foreground-accent)"/>
<rect x="22" y="2" width="40" height="196" fill="var(--g-color-background-normal)"/>
<rect x="24" y="26" width="36" height="12" rx="4" fill="var(--g-color-background-accent)"/>
<rect x="34" y="31" width="22" height="2" rx="1" fill="var(--g-color-foreground-accent)"/>
<circle cx="30" cy="32" r="2" fill="var(--g-color-primary-normal)"/>
<rect x="34" y="47" width="22" height="2" rx="1" fill="var(--g-color-foreground-accent)"/>
<circle cx="30" cy="48" r="2" fill="var(--g-color-primary-normal)"/>
<rect x="34" y="63" width="22" height="2" rx="1" fill="var(--g-color-foreground-accent)"/>
<circle cx="30" cy="64" r="2" fill="var(--g-color-primary-normal)"/>
<rect x="34" y="79" width="22" height="2" rx="1" fill="var(--g-color-foreground-accent)"/>
<circle cx="30" cy="80" r="2" fill="var(--g-color-primary-normal)"/>
<rect x="22" y="2" width="40" height="20" fill="var(--g-color-background-accent)"/>
<rect x="34" y="11" width="22" height="2" rx="1" fill="var(--g-color-foreground-accent)"/>
<circle cx="30" cy="12" r="2" fill="var(--g-color-foreground-accent)"/>
<rect x="70.5" y="38.5" width="51" height="15" rx="3.5" fill="var(--g-color-background-page)" stroke="var(--g-color-primary-normal)"/>
<rect x="71" y="34" width="16" height="2" rx="1" fill="var(--g-color-foreground-accent)"/>
<rect x="70.5" y="148.5" width="51" height="15" rx="3.5" fill="var(--g-color-background-page)" stroke="var(--g-color-border-normal)"/>
<rect x="71" y="143" width="16" height="3" rx="1.5" fill="var(--g-color-primary-subtle)"/>
<rect x="126.5" y="38.5" width="51" height="15" rx="3.5" fill="var(--g-color-background-page)" stroke="var(--g-color-border-normal)"/>
<rect x="127" y="34" width="16" height="2" rx="1" fill="var(--g-color-foreground-accent)"/>
<rect x="126.5" y="148.5" width="51" height="15" rx="3.5" fill="var(--g-color-background-page)" stroke="var(--g-color-border-normal)"/>
<rect x="127" y="143" width="16" height="3" rx="1.5" fill="var(--g-color-secondary-subtle)"/>
<rect x="70.5" y="66.5" width="107" height="15" rx="3.5" fill="var(--g-color-background-page)" stroke="var(--g-color-border-normal)"/>
<rect x="71" y="62" width="16" height="2" rx="1" fill="var(--g-color-foreground-accent)"/>
<path d="M70.5 180C70.5 178.067 72.067 176.5 74 176.5H174C175.933 176.5 177.5 178.067 177.5 180V198.5H70.5V180Z" fill="var(--g-color-background-page)" stroke="var(--g-color-border-normal)"/>
<rect x="71" y="172" width="16" height="2" rx="1" fill="var(--g-color-foreground-accent)"/>
<rect x="70" y="90" width="108" height="1" rx="0.5" fill="var(--g-color-border-subtle)"/>
<rect x="70" y="123" width="52" height="12" rx="4" fill="var(--g-color-primary-normal)"/>
<rect x="126" y="123" width="52" height="12" rx="4" fill="var(--g-color-secondary-normal)"/>
<path d="M70 99H174C176.209 99 178 100.791 178 103V111C178 113.209 176.209 115 174 115H70V99Z" fill="var(--g-color-background-normal)"/>
<rect x="86" y="104" width="24" height="2" rx="1" fill="var(--g-color-foreground-accent)"/>
<rect x="86" y="108" width="76" height="2" rx="1" fill="var(--g-color-foreground-accent)"/>
<rect x="70" y="99" width="2" height="16" fill="var(--g-color-primary-normal)"/>
<circle cx="79" cy="107" r="3" fill="var(--g-color-primary-normal)"/>
<rect x="70" y="10" width="12" height="12" rx="6" fill="var(--g-color-primary-subtle)"/>
<rect x="172" y="10" width="12" height="12" rx="6" fill="var(--g-color-primary-normal)"/>
<rect x="84" y="15" width="32" height="3" rx="1.5" fill="var(--g-color-foreground-accent)"/>
<rect x="84" y="10" width="24" height="2" rx="1" fill="var(--g-color-foreground-subtle)"/>
<circle cx="76" cy="16" r="3" fill="var(--g-color-primary-normal)"/>
<rect x="156" y="10" width="12" height="12" rx="6" fill="var(--g-color-background-normal)"/>
<circle cx="162" cy="16" r="3" fill="var(--g-color-foreground-normal)"/>
<rect x="1" y="1" width="214" height="198" rx="3" stroke="var(--g-color-border-subtle)" stroke-width="2"/>
</svg>
